<svg xmlns="http://www.w3.org/2000/svg" width="540" height="400" viewBox="0 0 540 400"><defs><clipPath id="slab"><path d="M194 65Q198 59 208 61L353 93Q362 95 365 107L305 314Q300 328 286 331L133 311Q117 306 117 291Z"/></clipPath></defs><g stroke="#182C42" stroke-width="3.5" stroke-linejoin="round" stroke-linecap="round"><circle cx="282" cy="207" r="173" fill="#0878CE" stroke="none"/><circle cx="282" cy="207" r="151" fill="none" stroke="#8DC5ED" stroke-width="1" stroke-dasharray="3 9" opacity=".75"/><path d="m90 271-27 14m45 6-11 18M400 66l15-17m4 43 25-5" fill="none" stroke="#FFE08A" stroke-width="4"/><path d="m402 285 9 21 24 2-19 15 6 24-21-13-21 13 6-25-19-14 25-2z" fill="#FFD24D"/><path d="m119 61 4 15 16 4-16 5-4 16-5-16-15-5 15-4z" fill="#FFF9E8"/><path d="m443 182 4 11 11 4-11 4-4 12-4-12-12-4 12-4z" fill="#FFF9E8"/><ellipse cx="254" cy="340" rx="115" ry="16" fill="#064E99" stroke="none"/><path d="M213 78 366 110Q380 114 378 127L323 326Q318 342 302 345L143 326Q132 320 131 304Z" fill="#153752" opacity=".3" stroke="none"/><path d="M194 65Q198 59 208 61L353 93Q362 95 365 107L305 314Q300 328 286 331L133 311Q117 306 117 291Z" fill="#CDBB96"/><path d="M194 65Q199 60 208 61L317 83Q328 85 326 99L268 290Q265 299 253 299L128 284Q118 282 121 273Z" fill="#F2E3BC"/><path d="m326 94 39 13m-100 188 32 29m-174-42-6 10" fill="none"/><path d="m195 76 115 24m-176 169 17-53" fill="none" stroke="#FFF9E6" stroke-width="5"/><g clip-path="url(#slab)" stroke="none"><path d="M175.7 90.8l0.9 0.4" stroke="#776D5A" stroke-width="2.1" opacity="0.37" stroke-linecap="round"/><path d="M322.2 266.2l0.9 0.4" stroke="#776D5A" stroke-width="1.4" opacity="0.51" stroke-linecap="round"/><path d="M338.5 340.5l2.2 1.1" stroke="#776D5A" stroke-width="1.5" opacity="0.39" stroke-linecap="round"/><path d="M365.4 194.8l2.1 1.0" stroke="#776D5A" stroke-width="1.8" opacity="0.41" stroke-linecap="round"/><path d="M361.4 347.0l1.1 0.5" stroke="#776D5A" stroke-width="1.6" opacity="0.64" stroke-linecap="round"/><path d="M364.8 225.4l1.4 0.7" stroke="#776D5A" stroke-width="1.7" opacity="0.47" stroke-linecap="round"/><path d="M258.1 301.8l1.2 0.6" stroke="#776D5A" stroke-width="1.2" opacity="0.49" stroke-linecap="round"/><path d="M171.1 111.6l1.8 0.9" stroke="#776D5A" stroke-width="2.1" opacity="0.40" stroke-linecap="round"/><path d="M357.2 254.2l2.3 1.2" stroke="#776D5A" stroke-width="1.1" opacity="0.71" stroke-linecap="round"/><path d="M146.3 179.5l1.5 0.7" stroke="#776D5A" stroke-width="1.7" opacity="0.57" stroke-linecap="round"/><path d="M136.6 297.0l1.5 0.8" stroke="#776D5A" stroke-width="1.9" opacity="0.63" stroke-linecap="round"/><path d="M205.5 161.6l2.4 1.2" stroke="#776D5A" stroke-width="1.7" opacity="0.57" stroke-linecap="round"/><path d="M168.2 113.1l1.0 0.5" stroke="#776D5A" stroke-width="1.4" opacity="0.59" stroke-linecap="round"/><path d="M290.4 296.4l2.3 1.1" stroke="#776D5A" stroke-width="1.3" opacity="0.77" stroke-linecap="round"/><path d="M294.6 305.4l1.2 0.6" stroke="#776D5A" stroke-width="2.2" opacity="0.66" stroke-linecap="round"/><path d="M234.8 171.3l2.1 1.0" stroke="#776D5A" stroke-width="1.2" opacity="0.61" stroke-linecap="round"/><path d="M242.2 335.2l1.3 0.7" stroke="#776D5A" stroke-width="2.2" opacity="0.40" stroke-linecap="round"/><path d="M321.9 281.9l1.5 0.7" stroke="#776D5A" stroke-width="2.3" opacity="0.60" stroke-linecap="round"/><path d="M141.0 139.8l1.8 0.9" stroke="#776D5A" stroke-width="1.4" opacity="0.79" stroke-linecap="round"/><path d="M219.9 222.4l1.4 0.7" stroke="#776D5A" stroke-width="2.1" opacity="0.66" stroke-linecap="round"/><path d="M147.1 293.0l1.3 0.7" stroke="#776D5A" stroke-width="1.5" opacity="0.65" stroke-linecap="round"/><path d="M254.6 344.0l1.7 0.9" stroke="#776D5A" stroke-width="2.2" opacity="0.48" stroke-linecap="round"/><path d="M297.2 251.1l1.6 0.8" stroke="#776D5A" stroke-width="1.4" opacity="0.52" stroke-linecap="round"/><path d="M254.1 130.6l1.0 0.5" stroke="#776D5A" stroke-width="1.1" opacity="0.43" stroke-linecap="round"/><path d="M111.1 283.1l1.3 0.6" stroke="#776D5A" stroke-width="1.8" opacity="0.67" stroke-linecap="round"/><path d="M208.7 113.2l1.0 0.5" stroke="#776D5A" stroke-width="1.9" opacity="0.49" stroke-linecap="round"/><path d="M323.7 179.2l1.1 0.5" stroke="#776D5A" stroke-width="1.1" opacity="0.37" stroke-linecap="round"/><path d="M370.9 96.2l2.1 1.1" stroke="#776D5A" stroke-width="1.4" opacity="0.47" stroke-linecap="round"/><path d="M261.4 247.6l1.3 0.7" stroke="#776D5A" stroke-width="1.8" opacity="0.63" stroke-linecap="round"/><path d="M165.8 187.6l2.1 1.0" stroke="#776D5A" stroke-width="1.5" opacity="0.78" stroke-linecap="round"/><path d="M168.7 160.5l1.3 0.6" stroke="#776D5A" stroke-width="1.8" opacity="0.60" stroke-linecap="round"/><path d="M374.5 109.6l1.2 0.6" stroke="#776D5A" stroke-width="1.8" opacity="0.36" stroke-linecap="round"/><path d="M150.6 85.5l1.0 0.5" stroke="#776D5A" stroke-width="2.2" opacity="0.64" stroke-linecap="round"/><path d="M178.7 218.9l1.4 0.7" stroke="#776D5A" stroke-width="2.2" opacity="0.76" stroke-linecap="round"/><path d="M273.6 68.8l2.4 1.2" stroke="#776D5A" stroke-width="1.0" opacity="0.39" stroke-linecap="round"/><path d="M178.2 324.3l1.7 0.8" stroke="#776D5A" stroke-width="2.0" opacity="0.70" stroke-linecap="round"/><path d="M163.7 187.4l1.4 0.7" stroke="#776D5A" stroke-width="2.2" opacity="0.45" stroke-linecap="round"/><path d="M362.7 344.9l1.3 0.6" stroke="#776D5A" stroke-width="1.4" opacity="0.79" stroke-linecap="round"/><path d="M374.0 203.9l1.3 0.7" stroke="#776D5A" stroke-width="1.7" opacity="0.51" stroke-linecap="round"/><path d="M140.7 122.3l1.5 0.7" stroke="#776D5A" stroke-width="2.0" opacity="0.55" stroke-linecap="round"/><path d="M371.8 327.0l1.8 0.9" stroke="#776D5A" stroke-width="2.0" opacity="0.65" stroke-linecap="round"/><path d="M323.5 311.1l0.9 0.5" stroke="#776D5A" stroke-width="1.5" opacity="0.68" stroke-linecap="round"/><path d="M278.6 242.4l2.0 1.0" stroke="#776D5A" stroke-width="1.2" opacity="0.76" stroke-linecap="round"/><path d="M162.5 222.4l1.7 0.9" stroke="#776D5A" stroke-width="1.3" opacity="0.36" stroke-linecap="round"/><path d="M149.0 245.1l2.3 1.1" stroke="#776D5A" stroke-width="1.9" opacity="0.51" stroke-linecap="round"/><path d="M130.4 95.6l2.2 1.1" stroke="#776D5A" stroke-width="1.8" opacity="0.47" stroke-linecap="round"/><path d="M147.1 150.9l1.6 0.8" stroke="#776D5A" stroke-width="2.0" opacity="0.56" stroke-linecap="round"/><path d="M346.1 282.8l1.5 0.7" stroke="#776D5A" stroke-width="1.5" opacity="0.52" stroke-linecap="round"/><path d="M345.4 202.3l1.6 0.8" stroke="#776D5A" stroke-width="1.7" opacity="0.39" stroke-linecap="round"/><path d="M237.2 226.8l2.0 1.0" stroke="#776D5A" stroke-width="1.7" opacity="0.40" stroke-linecap="round"/><path d="M236.4 90.8l1.6 0.8" stroke="#776D5A" stroke-width="1.7" opacity="0.69" stroke-linecap="round"/><path d="M258.2 197.2l1.3 0.6" stroke="#776D5A" stroke-width="1.1" opacity="0.41" stroke-linecap="round"/><path d="M335.2 135.0l1.2 0.6" stroke="#776D5A" stroke-width="1.5" opacity="0.45" stroke-linecap="round"/><path d="M207.8 336.2l1.5 0.8" stroke="#776D5A" stroke-width="1.2" opacity="0.55" stroke-linecap="round"/><path d="M154.1 121.0l1.5 0.7" stroke="#776D5A" stroke-width="2.2" opacity="0.72" stroke-linecap="round"/><path d="M261.3 243.7l1.3 0.7" stroke="#776D5A" stroke-width="1.5" opacity="0.49" stroke-linecap="round"/><path d="M345.4 105.6l1.8 0.9" stroke="#776D5A" stroke-width="1.0" opacity="0.73" stroke-linecap="round"/><path d="M140.9 262.3l2.0 1.0" stroke="#776D5A" stroke-width="2.0" opacity="0.50" stroke-linecap="round"/><path d="M371.6 289.6l1.0 0.5" stroke="#776D5A" stroke-width="1.4" opacity="0.37" stroke-linecap="round"/><path d="M229.9 161.1l1.5 0.7" stroke="#776D5A" stroke-width="1.5" opacity="0.77" stroke-linecap="round"/><path d="M191.8 256.2l1.8 0.9" stroke="#776D5A" stroke-width="1.5" opacity="0.72" stroke-linecap="round"/><path d="M277.4 111.6l0.8 0.4" stroke="#776D5A" stroke-width="2.1" opacity="0.49" stroke-linecap="round"/><path d="M336.8 70.2l2.0 1.0" stroke="#776D5A" stroke-width="1.1" opacity="0.78" stroke-linecap="round"/><path d="M311.2 150.6l2.3 1.1" stroke="#776D5A" stroke-width="2.0" opacity="0.70" stroke-linecap="round"/><path d="M189.9 248.7l2.0 1.0" stroke="#776D5A" stroke-width="2.0" opacity="0.75" stroke-linecap="round"/><path d="M169.4 314.3l1.4 0.7" stroke="#776D5A" stroke-width="1.6" opacity="0.60" stroke-linecap="round"/><path d="M313.1 156.1l1.7 0.9" stroke="#776D5A" stroke-width="2.3" opacity="0.77" stroke-linecap="round"/><path d="M238.1 316.6l1.6 0.8" stroke="#776D5A" stroke-width="1.2" opacity="0.36" stroke-linecap="round"/><path d="M270.6 247.6l1.8 0.9" stroke="#776D5A" stroke-width="1.3" opacity="0.68" stroke-linecap="round"/><path d="M180.5 218.3l2.2 1.1" stroke="#776D5A" stroke-width="2.0" opacity="0.66" stroke-linecap="round"/><path d="M355.9 292.6l1.0 0.5" stroke="#776D5A" stroke-width="1.1" opacity="0.45" stroke-linecap="round"/><path d="M131.7 259.1l1.1 0.6" stroke="#776D5A" stroke-width="1.5" opacity="0.54" stroke-linecap="round"/><path d="M285.0 151.7l1.7 0.8" stroke="#776D5A" stroke-width="1.2" opacity="0.77" stroke-linecap="round"/><path d="M203.7 107.5l2.2 1.1" stroke="#776D5A" stroke-width="1.5" opacity="0.71" stroke-linecap="round"/><path d="M241.2 297.9l2.0 1.0" stroke="#776D5A" stroke-width="1.3" opacity="0.67" stroke-linecap="round"/><path d="M229.1 320.2l2.3 1.1" stroke="#776D5A" stroke-width="2.1" opacity="0.51" stroke-linecap="round"/><path d="M310.6 126.8l2.0 1.0" stroke="#776D5A" stroke-width="2.1" opacity="0.47" stroke-linecap="round"/><path d="M354.8 199.0l1.8 0.9" stroke="#776D5A" stroke-width="1.4" opacity="0.45" stroke-linecap="round"/><path d="M250.0 86.7l1.6 0.8" stroke="#776D5A" stroke-width="1.1" opacity="0.71" stroke-linecap="round"/><path d="M220.4 71.5l0.8 0.4" stroke="#776D5A" stroke-width="1.2" opacity="0.66" stroke-linecap="round"/><path d="M367.0 146.3l2.4 1.2" stroke="#776D5A" stroke-width="1.8" opacity="0.58" stroke-linecap="round"/><path d="M250.3 224.0l1.8 0.9" stroke="#776D5A" stroke-width="2.0" opacity="0.41" stroke-linecap="round"/><path d="M130.6 290.8l1.8 0.9" stroke="#776D5A" stroke-width="1.7" opacity="0.75" stroke-linecap="round"/><path d="M268.8 244.1l2.1 1.0" stroke="#776D5A" stroke-width="1.7" opacity="0.56" stroke-linecap="round"/><path d="M339.6 305.7l1.8 0.9" stroke="#776D5A" stroke-width="1.1" opacity="0.78" stroke-linecap="round"/><path d="M168.4 129.0l2.0 1.0" stroke="#776D5A" stroke-width="1.3" opacity="0.45" stroke-linecap="round"/><path d="M249.9 288.2l1.4 0.7" stroke="#776D5A" stroke-width="1.0" opacity="0.58" stroke-linecap="round"/><path d="M290.7 127.8l2.0 1.0" stroke="#776D5A" stroke-width="2.1" opacity="0.77" stroke-linecap="round"/><path d="M181.8 332.4l2.2 1.1" stroke="#776D5A" stroke-width="1.3" opacity="0.47" stroke-linecap="round"/><path d="M307.4 229.1l1.8 0.9" stroke="#776D5A" stroke-width="1.1" opacity="0.69" stroke-linecap="round"/><path d="M268.5 222.4l1.6 0.8" stroke="#776D5A" stroke-width="1.4" opacity="0.45" stroke-linecap="round"/><path d="M230.5 203.1l2.2 1.1" stroke="#776D5A" stroke-width="1.1" opacity="0.40" stroke-linecap="round"/><path d="M268.5 199.7l2.2 1.1" stroke="#776D5A" stroke-width="2.1" opacity="0.44" stroke-linecap="round"/><path d="M245.2 68.9l1.2 0.6" stroke="#776D5A" stroke-width="1.6" opacity="0.65" stroke-linecap="round"/><path d="M278.0 261.9l2.2 1.1" stroke="#776D5A" stroke-width="1.3" opacity="0.58" stroke-linecap="round"/><path d="M161.1 180.2l1.0 0.5" stroke="#776D5A" stroke-width="1.1" opacity="0.46" stroke-linecap="round"/><path d="M246.8 122.0l2.2 1.1" stroke="#776D5A" stroke-width="2.2" opacity="0.62" stroke-linecap="round"/><path d="M247.5 163.4l1.6 0.8" stroke="#776D5A" stroke-width="2.3" opacity="0.43" stroke-linecap="round"/><path d="M132.8 116.2l2.3 1.2" stroke="#776D5A" stroke-width="1.4" opacity="0.61" stroke-linecap="round"/><path d="M162.1 70.3l1.8 0.9" stroke="#776D5A" stroke-width="1.7" opacity="0.63" stroke-linecap="round"/><path d="M364.6 274.6l1.2 0.6" stroke="#776D5A" stroke-width="1.8" opacity="0.54" stroke-linecap="round"/><path d="M301.8 318.8l2.1 1.1" stroke="#776D5A" stroke-width="1.6" opacity="0.39" stroke-linecap="round"/><path d="M192.9 184.9l1.9 1.0" stroke="#776D5A" stroke-width="2.3" opacity="0.67" stroke-linecap="round"/><path d="M262.7 307.1l2.3 1.1" stroke="#776D5A" stroke-width="1.3" opacity="0.68" stroke-linecap="round"/><path d="M312.0 81.2l2.0 1.0" stroke="#776D5A" stroke-width="1.0" opacity="0.69" stroke-linecap="round"/><path d="M246.0 271.8l1.0 0.5" stroke="#776D5A" stroke-width="1.5" opacity="0.61" stroke-linecap="round"/><path d="M136.1 85.4l2.0 1.0" stroke="#776D5A" stroke-width="1.0" opacity="0.54" stroke-linecap="round"/><path d="M271.6 136.2l1.1 0.5" stroke="#776D5A" stroke-width="1.5" opacity="0.69" stroke-linecap="round"/><path d="M216.6 120.9l1.1 0.6" stroke="#776D5A" stroke-width="1.0" opacity="0.52" stroke-linecap="round"/><path d="M181.4 194.9l1.8 0.9" stroke="#776D5A" stroke-width="1.1" opacity="0.67" stroke-linecap="round"/><path d="M250.0 69.5l1.9 0.9" stroke="#776D5A" stroke-width="1.5" opacity="0.79" stroke-linecap="round"/><path d="M175.7 121.0l2.3 1.1" stroke="#776D5A" stroke-width="1.5" opacity="0.57" stroke-linecap="round"/><path d="M287.2 84.8l2.4 1.2" stroke="#776D5A" stroke-width="2.2" opacity="0.78" stroke-linecap="round"/><path d="M167.2 109.4l2.2 1.1" stroke="#776D5A" stroke-width="1.2" opacity="0.39" stroke-linecap="round"/><path d="M139.5 77.7l1.0 0.5" stroke="#776D5A" stroke-width="1.1" opacity="0.52" stroke-linecap="round"/><path d="M268.1 147.9l1.9 1.0" stroke="#776D5A" stroke-width="1.8" opacity="0.37" stroke-linecap="round"/><path d="M167.6 251.4l1.0 0.5" stroke="#776D5A" stroke-width="1.5" opacity="0.77" stroke-linecap="round"/><path d="M373.6 171.2l2.4 1.2" stroke="#776D5A" stroke-width="1.2" opacity="0.59" stroke-linecap="round"/><path d="M186.7 86.9l1.5 0.7" stroke="#776D5A" stroke-width="1.2" opacity="0.53" stroke-linecap="round"/><path d="M230.9 345.2l1.9 1.0" stroke="#776D5A" stroke-width="2.0" opacity="0.77" stroke-linecap="round"/><path d="M193.3 339.1l1.7 0.9" stroke="#776D5A" stroke-width="1.5" opacity="0.39" stroke-linecap="round"/><path d="M291.7 157.8l1.6 0.8" stroke="#776D5A" stroke-width="1.1" opacity="0.46" stroke-linecap="round"/><path d="M302.2 65.1l1.8 0.9" stroke="#776D5A" stroke-width="1.2" opacity="0.49" stroke-linecap="round"/><path d="M174.9 146.5l1.5 0.8" stroke="#776D5A" stroke-width="1.0" opacity="0.76" stroke-linecap="round"/><path d="M181.3 211.4l1.1 0.5" stroke="#776D5A" stroke-width="1.4" opacity="0.78" stroke-linecap="round"/><path d="M166.6 264.2l0.9 0.4" stroke="#776D5A" stroke-width="1.5" opacity="0.57" stroke-linecap="round"/><path d="M112.9 195.3l1.5 0.8" stroke="#776D5A" stroke-width="1.2" opacity="0.78" stroke-linecap="round"/><path d="M344.0 205.3l2.2 1.1" stroke="#776D5A" stroke-width="1.5" opacity="0.74" stroke-linecap="round"/><path d="M195.9 142.0l1.5 0.7" stroke="#776D5A" stroke-width="1.7" opacity="0.63" stroke-linecap="round"/><path d="M204.4 254.4l1.1 0.5" stroke="#776D5A" stroke-width="2.1" opacity="0.50" stroke-linecap="round"/><path d="M290.8 108.8l2.1 1.0" stroke="#776D5A" stroke-width="1.2" opacity="0.59" stroke-linecap="round"/><path d="M233.6 254.2l1.0 0.5" stroke="#776D5A" stroke-width="1.4" opacity="0.37" stroke-linecap="round"/><path d="M115.9 126.5l2.1 1.1" stroke="#776D5A" stroke-width="1.6" opacity="0.68" stroke-linecap="round"/><path d="M320.0 73.1l1.2 0.6" stroke="#776D5A" stroke-width="1.3" opacity="0.72" stroke-linecap="round"/><path d="M292.4 214.5l1.8 0.9" stroke="#776D5A" stroke-width="1.7" opacity="0.53" stroke-linecap="round"/><path d="M324.9 323.7l2.2 1.1" stroke="#776D5A" stroke-width="1.1" opacity="0.36" stroke-linecap="round"/><path d="M191.6 81.3l1.8 0.9" stroke="#776D5A" stroke-width="1.5" opacity="0.68" stroke-linecap="round"/><path d="M350.6 247.0l1.6 0.8" stroke="#776D5A" stroke-width="2.0" opacity="0.38" stroke-linecap="round"/><path d="M294.7 300.1l2.1 1.0" stroke="#776D5A" stroke-width="1.2" opacity="0.60" stroke-linecap="round"/><path d="M160.6 264.8l1.0 0.5" stroke="#776D5A" stroke-width="1.1" opacity="0.64" stroke-linecap="round"/><path d="M345.4 273.7l1.2 0.6" stroke="#776D5A" stroke-width="1.2" opacity="0.57" stroke-linecap="round"/><path d="M189.9 192.3l2.3 1.1" stroke="#776D5A" stroke-width="1.4" opacity="0.42" stroke-linecap="round"/><path d="M344.4 345.2l1.9 0.9" stroke="#776D5A" stroke-width="2.2" opacity="0.65" stroke-linecap="round"/><path d="M335.9 289.3l1.3 0.7" stroke="#776D5A" stroke-width="1.8" opacity="0.48" stroke-linecap="round"/><path d="M272.2 260.8l1.5 0.8" stroke="#776D5A" stroke-width="2.0" opacity="0.78" stroke-linecap="round"/><path d="M162.7 311.0l1.1 0.6" stroke="#776D5A" stroke-width="1.5" opacity="0.40" stroke-linecap="round"/><path d="M135.9 290.4l2.1 1.0" stroke="#776D5A" stroke-width="1.0" opacity="0.71" stroke-linecap="round"/><path d="M144.2 179.0l0.8 0.4" stroke="#776D5A" stroke-width="1.6" opacity="0.79" stroke-linecap="round"/><path d="M344.4 99.8l1.7 0.9" stroke="#776D5A" stroke-width="1.6" opacity="0.56" stroke-linecap="round"/><path d="M170.4 150.0l1.1 0.6" stroke="#776D5A" stroke-width="1.5" opacity="0.40" stroke-linecap="round"/><path d="M249.6 138.2l1.3 0.6" stroke="#776D5A" stroke-width="2.2" opacity="0.46" stroke-linecap="round"/><path d="M173.5 305.3l2.3 1.2" stroke="#776D5A" stroke-width="2.0" opacity="0.47" stroke-linecap="round"/><path d="M212.1 253.8l1.6 0.8" stroke="#776D5A" stroke-width="2.2" opacity="0.77" stroke-linecap="round"/><path d="M178.2 72.4l1.8 0.9" stroke="#776D5A" stroke-width="2.0" opacity="0.64" stroke-linecap="round"/><path d="M185.0 123.1l2.2 1.1" stroke="#776D5A" stroke-width="1.6" opacity="0.38" stroke-linecap="round"/></g><path d="M43 135Q43 124 56 124H128Q140 124 140 137V176Q140 188 128 188H102L83 204V188H56Q43 188 43 174Z" fill="#FFF9E8"/><path d="M340 216Q340 201 355 201H462Q477 201 477 216V264Q477 280 462 280H384L362 298V280H355Q340 280 340 264Z" fill="#FFD24D"/><path d="M57 228c15 15 34 15 52 0m-9-3 9 3-3 10" fill="none" stroke="#FFF9E8" stroke-width="2.5"/></g><g font-family="Microsoft YaHei UI,Microsoft YaHei,sans-serif" fill="#182C42" text-anchor="middle"><text x="92" y="171" font-size="38" font-weight="700">あ</text><text x="408" y="253" font-size="36" font-weight="800">你好!</text></g><g transform="translate(223 20) rotate(9)"><rect width="128" height="30" rx="5" fill="#FFD24D" stroke="#182C42" stroke-width="2.5"/><text x="64" y="21" text-anchor="middle" font-family="Microsoft YaHei UI,sans-serif" font-size="14" font-weight="800" fill="#182C42" letter-spacing="2">翻译魔芋</text></g></svg>